<?xml version="1.0" encoding="utf-8"?>
<!-- Generator: Adobe Illustrator 28.0.0, SVG Export Plug-In . SVG Version: 6.00 Build 0)  -->
<svg version="1.1" id="Layer_1" xmlns="http://www.w3.org/2000/svg" xmlns:xlink="http://www.w3.org/1999/xlink" x="0px" y="0px"
	 viewBox="0 0 1080 446.4" style="enable-background:new 0 0 1080 446.4;" xml:space="preserve">
<style type="text/css">
	.st0{fill:#D4BFF6;}
	.st1{fill:#6F2AE2;}
</style>
<g>
	<path class="st0" d="M770.6,47.3c-0.7-1.2-1.4-2.4-2.2-3.5c-0.1-0.2-0.2-0.4-0.4-0.6c-0.7-1.2-1.5-2.3-2.3-3.4
		c-0.1-0.2-0.3-0.4-0.4-0.6c-0.8-1-1.5-2-2.3-3c-0.2-0.3-0.4-0.6-0.7-0.8c-0.7-0.9-1.4-1.7-2.2-2.6c-0.3-0.4-0.7-0.8-1-1.2
		c-0.6-0.7-1.3-1.4-1.9-2c-0.5-0.5-1-1-1.5-1.5c-0.5-0.5-1-1-1.5-1.5c-0.7-0.6-1.3-1.3-2-1.9c-0.4-0.3-0.8-0.7-1.2-1
		c-0.8-0.7-1.7-1.5-2.6-2.2c-0.3-0.2-0.6-0.4-0.8-0.7c-1-0.8-2-1.6-3-2.3c-0.2-0.2-0.4-0.3-0.6-0.4c-1.1-0.8-2.2-1.6-3.4-2.3
		c-0.2-0.1-0.4-0.2-0.6-0.4c-1.2-0.8-2.3-1.5-3.5-2.2c-0.1-0.1-0.2-0.1-0.3-0.2c-0.1-0.1-0.3-0.2-0.4-0.2c-1.1-0.6-2.2-1.2-3.3-1.8
		c-0.4-0.2-0.8-0.4-1.3-0.6c-0.9-0.5-1.8-0.9-2.7-1.3c-0.6-0.3-1.3-0.6-1.9-0.9c-0.7-0.3-1.3-0.6-2-0.8c-0.9-0.4-1.8-0.7-2.6-1.1
		c-0.4-0.2-0.8-0.3-1.3-0.5c-1.1-0.4-2.2-0.8-3.3-1.2c-0.2-0.1-0.4-0.1-0.6-0.2c-1.3-0.4-2.7-0.8-4-1.2c0,0,0,0-0.1,0
		c-4.4-1.2-8.9-2-13.4-2.5c-0.1,0-0.2,0-0.3,0c-1.4-0.1-2.7-0.3-4.1-0.4c-0.4,0-0.8,0-1.2-0.1c-1.1-0.1-2.1-0.1-3.2-0.1
		c-0.8,0-1.6,0-2.4,0c-0.7,0-1.3,0-2,0c-1.2,0-2.4,0.1-3.6,0.2c-0.3,0-0.6,0-0.8,0.1c-7.4,0.5-14.8,1.9-22.1,4.2
		c-0.1,0-0.3,0.1-0.4,0.1c-1.2,0.4-2.3,0.8-3.5,1.2c-0.4,0.1-0.8,0.3-1.1,0.4c-0.9,0.4-1.8,0.7-2.8,1.1c-0.6,0.3-1.3,0.5-1.9,0.8
		c-0.7,0.3-1.3,0.6-2,0.9c-0.9,0.4-1.8,0.8-2.6,1.3c-0.4,0.2-0.9,0.4-1.3,0.7c-1.1,0.6-2.2,1.2-3.2,1.8c-0.1,0.1-0.3,0.2-0.4,0.2
		c-0.1,0.1-0.2,0.1-0.4,0.2c-1.2,0.7-2.3,1.4-3.5,2.1c-0.2,0.1-0.4,0.2-0.6,0.4c-1.1,0.7-2.2,1.5-3.3,2.3c-0.2,0.2-0.4,0.3-0.7,0.5
		c-1,0.7-2,1.5-3,2.3c-0.3,0.2-0.6,0.5-0.9,0.7c-0.8,0.7-1.7,1.4-2.5,2.2c-0.4,0.3-0.8,0.7-1.2,1c-0.7,0.6-1.3,1.2-2,1.9
		c-0.5,0.5-1.1,1-1.6,1.5c-0.5,0.5-1,1-1.5,1.5c-0.7,0.7-1.3,1.3-1.9,2c-0.3,0.4-0.7,0.8-1,1.2c-0.7,0.8-1.5,1.7-2.2,2.6
		c-0.2,0.3-0.4,0.5-0.7,0.8c-0.8,1-1.6,2-2.3,3.1c-0.1,0.2-0.3,0.4-0.4,0.6c-0.8,1.1-1.6,2.2-2.3,3.4c-0.1,0.2-0.2,0.4-0.4,0.6
		c-0.7,1.2-1.5,2.3-2.2,3.5c-0.1,0.1-0.1,0.2-0.2,0.3L540,160.4L475.2,48.8c16,28.5,16.9,64.5-0.7,94.8L391.9,286l65.5,112.8
		c17.1,29.4,48.6,47.6,82.6,47.6s65.6-18.1,82.6-47.6l65.5-112.8l64.8,111.6c-15.9-28.5-16.8-64.4,0.7-94.7l82.6-142.4L770.8,47.6
		C770.7,47.5,770.7,47.4,770.6,47.3z M614.1,318.5c-52.6,0-95.3-42.7-95.3-95.3c0-52.6,42.7-95.3,95.3-95.3
		c52.6,0,95.3,42.7,95.3,95.3C709.3,275.8,666.7,318.5,614.1,318.5z"/>
	<path class="st1" d="M243.7,446.3c-34.1,0-65.5-18.1-82.6-47.6L12.9,143.6C-13.6,97.9,2,39.4,47.6,12.9
		C93.3-13.6,151.7,2,178.2,47.6l65.5,112.8l65.5-112.8c26.5-45.6,85-61.2,130.6-34.7c45.6,26.5,61.2,85,34.7,130.6L326.4,398.8
		C309.3,428.2,277.8,446.3,243.7,446.3z"/>
	<path class="st1" d="M836.2,446.4c-16.3,0-32.8-4.2-47.9-12.9c-45.6-26.5-61.2-85-34.7-130.6L901.8,47.6
		c26.5-45.6,85-61.2,130.6-34.7c45.6,26.5,61.2,85,34.7,130.6L918.9,398.8C901.2,429.3,869.1,446.4,836.2,446.4z"/>
	<circle class="st1" cx="614.1" cy="223.2" r="95.3"/>
</g>
</svg>
