<?xml version="1.0" encoding="UTF-8"?><svg id="Layer_1" xmlns="http://www.w3.org/2000/svg" viewBox="0 0 1080 446.36"><defs><style>.cls-1{fill:#31007f;}.cls-1,.cls-2{stroke-width:0px;}.cls-2{fill:#fff;}</style></defs><path class="cls-1" d="m770.58,47.27c-.69-1.19-1.42-2.35-2.16-3.5-.12-.19-.25-.39-.37-.57-.74-1.15-1.52-2.28-2.32-3.4-.14-.19-.3-.41-.44-.62-.76-1.03-1.54-2.04-2.34-3.04-.21-.28-.42-.57-.65-.83-.71-.87-1.43-1.73-2.18-2.57-.34-.39-.67-.8-1.01-1.17-.62-.69-1.26-1.36-1.91-2.04-.5-.51-.97-1.03-1.49-1.54-.5-.5-1.03-.99-1.54-1.49-.67-.64-1.33-1.27-2.02-1.89-.39-.34-.78-.67-1.17-1.03-.85-.73-1.7-1.45-2.57-2.16-.27-.23-.57-.44-.83-.67-1.01-.8-2.02-1.58-3.04-2.32-.21-.16-.42-.3-.62-.44-1.11-.8-2.25-1.58-3.4-2.34-.19-.12-.37-.25-.57-.35-1.17-.76-2.34-1.47-3.5-2.16-.12-.07-.23-.14-.34-.21-.14-.09-.3-.16-.44-.23-1.08-.62-2.18-1.22-3.27-1.81-.42-.21-.83-.42-1.26-.64-.9-.46-1.81-.88-2.71-1.31-.64-.3-1.27-.6-1.91-.87-.67-.3-1.35-.58-2.02-.85-.87-.37-1.75-.73-2.64-1.06-.42-.16-.85-.3-1.27-.46-1.11-.41-2.23-.8-3.34-1.15-.19-.07-.41-.12-.6-.18-1.33-.42-2.65-.81-3.98-1.17-.02,0-.04,0-.05-.02-4.44-1.17-8.92-2.02-13.41-2.55-.11-.02-.21-.02-.32-.04-1.36-.14-2.74-.28-4.11-.37-.41-.04-.81-.04-1.22-.07-1.06-.05-2.12-.11-3.19-.14-.8-.02-1.59,0-2.41,0-.65,0-1.33-.02-2,0-1.19.04-2.37.09-3.56.16-.28.02-.57.04-.85.05-7.4.5-14.8,1.88-22.05,4.18-.14.04-.28.09-.42.12-1.19.37-2.34.78-3.5,1.2-.37.14-.76.27-1.13.41-.92.35-1.84.73-2.76,1.1-.62.27-1.26.53-1.89.8-.67.3-1.33.6-2,.92-.88.41-1.77.83-2.64,1.27-.44.21-.88.44-1.31.67-1.1.57-2.18,1.17-3.24,1.77-.14.09-.3.16-.44.25-.12.07-.23.14-.35.21-1.17.69-2.34,1.4-3.49,2.14-.19.12-.39.25-.6.39-1.13.74-2.25,1.5-3.34,2.3-.21.16-.44.32-.65.46-1.03.74-2.02,1.52-3.01,2.3-.3.23-.58.46-.88.69-.85.71-1.68,1.42-2.53,2.16-.39.34-.8.69-1.19,1.04-.69.6-1.35,1.24-2,1.86-.53.51-1.06,1.01-1.58,1.52s-.97,1.01-1.45,1.52c-.65.67-1.29,1.35-1.93,2.04-.34.37-.65.76-.99,1.15-.74.85-1.49,1.72-2.19,2.58-.21.27-.42.55-.65.81-.8,1.01-1.58,2.04-2.34,3.06-.14.21-.28.41-.42.62-.81,1.11-1.59,2.25-2.34,3.4-.12.18-.25.37-.37.57-.74,1.15-1.47,2.32-2.16,3.5-.07.12-.14.23-.21.34l-65.48,112.82-64.79-111.62c15.96,28.51,16.9,64.45-.69,94.75l-82.66,142.39,65.5,112.8c17.1,29.45,48.58,47.59,82.65,47.59s65.55-18.14,82.65-47.59l65.5-112.82,64.76,111.58c-15.93-28.49-16.85-64.44.73-94.72l82.65-142.38-65.48-112.82c-.07-.11-.14-.21-.21-.34Zm-156.52,271.2c-52.61,0-95.27-42.67-95.27-95.28s42.65-95.28,95.27-95.28,95.28,42.67,95.28,95.28-42.65,95.28-95.28,95.28Z"/><path class="cls-2" d="m243.72,446.34c-34.06,0-65.55-18.13-82.65-47.59L12.93,143.56C-13.57,97.92,1.96,39.43,47.6,12.93,93.25-13.57,151.73,1.96,178.23,47.6l65.49,112.81,65.49-112.81C335.71,1.96,394.19-13.57,439.84,12.93c45.65,26.5,61.17,84.98,34.67,130.63l-148.14,255.19c-17.1,29.46-48.59,47.59-82.65,47.59Z"/><path class="cls-2" d="m836.19,446.36c-16.29,0-32.79-4.17-47.89-12.93-45.65-26.5-61.17-84.98-34.67-130.63l148.14-255.19c26.5-45.65,84.98-61.17,130.63-34.67,45.65,26.5,61.17,84.98,34.67,130.63l-148.14,255.19c-17.73,30.55-49.79,47.6-82.74,47.6Z"/><circle class="cls-2" cx="614.07" cy="223.18" r="95.28"/></svg>